<svg fill="#000000" width="800px" height="800px" viewBox="0 0 24 24" id="chat-bubble-2" data-name="Line Color" xmlns="http://www.w3.org/2000/svg" class="icon line-color">
    <path id="secondary" d="M17,13a1,1,0,0,1-1-1V9a1,1,0,0,1,2,0v3A1,1,0,0,1,17,13Z" style="fill: none; stroke: #FFFFFF; stroke-linecap: round; stroke-linejoin: round; stroke-width: 2;"></path>
    <path id="secondary-2" data-name="secondary" d="M12,13a1,1,0,0,1-1-1V9a1,1,0,0,1,2,0v3A1,1,0,0,1,12,13Z" style="fill: none; stroke: #FFFFFF; stroke-linecap: round; stroke-linejoin: round; stroke-width: 2;"></path>
    <path id="secondary-3" data-name="secondary" d="M7,13a1,1,0,0,1-1-1V9a1,1,0,1,1,2,0v3A1,1,0,0,1,7,13Z" style="fill: none; stroke: #FFFFFF; stroke-linecap: round; stroke-linejoin: round; stroke-width: 2;"></path>
    <path id="primary" d="M21,13a3,3,0,0,1-3,3H12.62a1,1,0,0,0-.62.22L8,19.4V16a1,1,0,0,0-1-1H6a3,3,0,0,1-3-3V6A3,3,0,0,1,6,3H18a3,3,0,0,1,3,3Z" style="fill: #FFFFFF; stroke: #FFFFFF; stroke-linecap: round; stroke-linejoin: round; stroke-width: 2;"></path>
</svg>